<svg width="134" height="31" viewBox="0 0 134 31" fill="none" xmlns="http://www.w3.org/2000/svg">
<path d="M47.3951 24.2016C46.0804 24.2016 44.8918 23.9765 43.8292 23.5263C42.7847 23.076 41.9563 22.4277 41.3439 21.5812C40.7316 20.7348 40.4164 19.7353 40.3984 18.5827H44.4506C44.5046 19.3571 44.7747 19.9694 45.261 20.4196C45.7653 20.8699 46.4496 21.095 47.3141 21.095C48.1965 21.095 48.8899 20.8879 49.3942 20.4737C49.8984 20.0414 50.1506 19.4831 50.1506 18.7988C50.1506 18.2405 49.9795 17.7812 49.6373 17.4211C49.2951 17.0609 48.8629 16.7817 48.3406 16.5836C47.8363 16.3675 47.134 16.1334 46.2335 15.8812C45.0089 15.5211 44.0093 15.1699 43.2349 14.8277C42.4785 14.4675 41.8212 13.9362 41.2629 13.2339C40.7226 12.5135 40.4525 11.559 40.4525 10.3704C40.4525 9.25377 40.7316 8.28126 41.2899 7.45282C41.8482 6.62439 42.6316 5.99406 43.6401 5.56183C44.6487 5.11159 45.8013 4.88647 47.098 4.88647C49.043 4.88647 50.6188 5.36372 51.8254 6.31823C53.0501 7.25472 53.7254 8.56941 53.8515 10.2623H49.6913C49.6553 9.61396 49.3762 9.08268 48.8539 8.66846C48.3496 8.23623 47.6743 8.02012 46.8278 8.02012C46.0894 8.02012 45.4951 8.20922 45.0449 8.58742C44.6127 8.96562 44.3965 9.5149 44.3965 10.2353C44.3965 10.7395 44.5586 11.1628 44.8828 11.5049C45.225 11.8291 45.6392 12.0993 46.1254 12.3154C46.6297 12.5135 47.3321 12.7476 48.2326 13.0177C49.4572 13.3779 50.4567 13.7381 51.2311 14.0983C52.0055 14.4585 52.6719 14.9988 53.2302 15.7192C53.7885 16.4395 54.0676 17.385 54.0676 18.5557C54.0676 19.5642 53.8065 20.5007 53.2842 21.3651C52.7619 22.2296 51.9965 22.9229 50.988 23.4452C49.9795 23.9495 48.7818 24.2016 47.3951 24.2016Z" fill="#18063C"/>
<path d="M56.1038 16.4756C56.1038 14.9628 56.401 13.6211 56.9953 12.4504C57.6076 11.2798 58.427 10.3794 59.4536 9.74903C60.4981 9.1187 61.6597 8.80353 62.9384 8.80353C64.055 8.80353 65.0275 9.02865 65.8559 9.47889C66.7024 9.92912 67.3777 10.4964 67.882 11.1808V9.04666H71.691V24.0125H67.882V21.8244C67.3957 22.5267 66.7204 23.112 65.8559 23.5803C65.0095 24.0305 64.028 24.2556 62.9114 24.2556C61.6507 24.2556 60.4981 23.9315 59.4536 23.2831C58.427 22.6348 57.6076 21.7253 56.9953 20.5547C56.401 19.3661 56.1038 18.0064 56.1038 16.4756ZM67.882 16.5296C67.882 15.6111 67.7019 14.8277 67.3417 14.1794C66.9815 13.513 66.4953 13.0087 65.8829 12.6666C65.2706 12.3064 64.6133 12.1263 63.9109 12.1263C63.2085 12.1263 62.5602 12.2974 61.9659 12.6395C61.3716 12.9817 60.8853 13.486 60.5071 14.1523C60.1469 14.8007 59.9668 15.5751 59.9668 16.4756C59.9668 17.376 60.1469 18.1684 60.5071 18.8528C60.8853 19.5192 61.3716 20.0324 61.9659 20.3926C62.5782 20.7528 63.2265 20.9329 63.9109 20.9329C64.6133 20.9329 65.2706 20.7618 65.8829 20.4196C66.4953 20.0594 66.9815 19.5552 67.3417 18.9068C67.7019 18.2405 67.882 17.4481 67.882 16.5296Z" fill="#18063C"/>
<path d="M74.1421 16.4756C74.1421 14.9628 74.4393 13.6211 75.0336 12.4504C75.6459 11.2798 76.4653 10.3794 77.4919 9.74903C78.5364 9.1187 79.698 8.80353 80.9767 8.80353C82.0933 8.80353 83.0658 9.02865 83.8942 9.47889C84.7407 9.92912 85.416 10.4964 85.9203 11.1808V9.04666H89.7293V24.0125H85.9203V21.8244C85.434 22.5267 84.7587 23.112 83.8942 23.5803C83.0478 24.0305 82.0663 24.2556 80.9497 24.2556C79.689 24.2556 78.5364 23.9315 77.4919 23.2831C76.4653 22.6348 75.6459 21.7253 75.0336 20.5547C74.4393 19.3661 74.1421 18.0064 74.1421 16.4756ZM85.9203 16.5296C85.9203 15.6111 85.7402 14.8277 85.38 14.1794C85.0198 13.513 84.5336 13.0087 83.9212 12.6666C83.3089 12.3064 82.6516 12.1263 81.9492 12.1263C81.2468 12.1263 80.5985 12.2974 80.0042 12.6395C79.4099 12.9817 78.9236 13.486 78.5454 14.1523C78.1852 14.8007 78.0051 15.5751 78.0051 16.4756C78.0051 17.376 78.1852 18.1684 78.5454 18.8528C78.9236 19.5192 79.4099 20.0324 80.0042 20.3926C80.6165 20.7528 81.2649 20.9329 81.9492 20.9329C82.6516 20.9329 83.3089 20.7618 83.9212 20.4196C84.5336 20.0594 85.0198 19.5552 85.38 18.9068C85.7402 18.2405 85.9203 17.4481 85.9203 16.5296Z" fill="#18063C"/>
<path d="M99.6633 24.2016C98.3486 24.2016 97.16 23.9765 96.0975 23.5263C95.0529 23.076 94.2245 22.4277 93.6122 21.5812C92.9998 20.7348 92.6847 19.7353 92.6667 18.5827H96.7188C96.7728 19.3571 97.043 19.9694 97.5292 20.4196C98.0335 20.8699 98.7178 21.095 99.5823 21.095C100.465 21.095 101.158 20.8879 101.662 20.4737C102.167 20.0414 102.419 19.4831 102.419 18.7988C102.419 18.2405 102.248 17.7812 101.906 17.4211C101.563 17.0609 101.131 16.7817 100.609 16.5836C100.105 16.3675 99.4022 16.1334 98.5017 15.8812C97.2771 15.5211 96.2776 15.1699 95.5032 14.8277C94.7468 14.4675 94.0894 13.9362 93.5311 13.2339C92.9908 12.5135 92.7207 11.559 92.7207 10.3704C92.7207 9.25377 92.9998 8.28126 93.5581 7.45282C94.1164 6.62439 94.8998 5.99406 95.9084 5.56183C96.9169 5.11159 98.0695 4.88647 99.3662 4.88647C101.311 4.88647 102.887 5.36372 104.094 6.31823C105.318 7.25472 105.994 8.56941 106.12 10.2623H101.96C101.924 9.61396 101.644 9.08268 101.122 8.66846C100.618 8.23623 99.9425 8.02012 99.096 8.02012C98.3577 8.02012 97.7633 8.20922 97.3131 8.58742C96.8809 8.96562 96.6648 9.5149 96.6648 10.2353C96.6648 10.7395 96.8268 11.1628 97.151 11.5049C97.4932 11.8291 97.9074 12.0993 98.3937 12.3154C98.8979 12.5135 99.6003 12.7476 100.501 13.0177C101.725 13.3779 102.725 13.7381 103.499 14.0983C104.274 14.4585 104.94 14.9988 105.498 15.7192C106.057 16.4395 106.336 17.385 106.336 18.5557C106.336 19.5642 106.075 20.5007 105.552 21.3651C105.03 22.2296 104.265 22.9229 103.256 23.4452C102.248 23.9495 101.05 24.2016 99.6633 24.2016Z" fill="#18063C"/>
<path d="M113.748 12.1533V19.3931C113.748 19.8974 113.865 20.2666 114.099 20.5007C114.351 20.7168 114.765 20.8248 115.342 20.8248H117.098V24.0125H114.72C111.533 24.0125 109.939 22.4637 109.939 19.3661V12.1533H108.156V9.04666H109.939V5.34571H113.748V9.04666H117.098V12.1533H113.748Z" fill="#18063C"/>
<path d="M126.193 24.2556C124.752 24.2556 123.456 23.9405 122.303 23.3102C121.151 22.6618 120.241 21.7523 119.575 20.5817C118.926 19.4111 118.602 18.0604 118.602 16.5296C118.602 14.9988 118.935 13.6481 119.602 12.4775C120.286 11.3068 121.214 10.4064 122.384 9.77604C123.555 9.1277 124.86 8.80353 126.301 8.80353C127.742 8.80353 129.048 9.1277 130.218 9.77604C131.389 10.4064 132.307 11.3068 132.974 12.4775C133.658 13.6481 134 14.9988 134 16.5296C134 18.0604 133.649 19.4111 132.947 20.5817C132.262 21.7523 131.326 22.6618 130.137 23.3102C128.967 23.9405 127.652 24.2556 126.193 24.2556ZM126.193 20.9599C126.878 20.9599 127.517 20.7978 128.111 20.4737C128.723 20.1315 129.21 19.6272 129.57 18.9609C129.93 18.2945 130.11 17.4841 130.11 16.5296C130.11 15.1068 129.732 14.0173 128.976 13.2609C128.237 12.4865 127.328 12.0993 126.247 12.0993C125.167 12.0993 124.257 12.4865 123.519 13.2609C122.798 14.0173 122.438 15.1068 122.438 16.5296C122.438 17.9523 122.789 19.0509 123.492 19.8253C124.212 20.5817 125.113 20.9599 126.193 20.9599Z" fill="#18063C"/>
<path d="M16.804 27.7701H8.48386C5.00419 27.7701 2.18164 24.9502 2.18164 21.4679V8.54783C2.18164 5.06815 5.0016 2.24561 8.48386 2.24561H18.6228C17.4922 2.35685 16.3979 2.59745 15.3475 2.97517C13.8547 3.51329 12.6414 4.32306 11.7074 5.40189C10.7735 6.48072 10.3052 7.77428 10.3052 9.28516C10.3052 10.9021 10.701 12.2164 11.4927 13.2202C12.2818 14.2266 13.2364 14.982 14.3515 15.4839C15.4639 15.9884 16.9024 16.4903 18.6642 16.9948C20.1026 17.4268 21.2254 17.8045 22.0352 18.1279C22.8424 18.4513 23.5176 18.9015 24.0583 19.4758C24.5964 20.0502 24.8655 20.7875 24.8655 21.6852C24.8655 23.015 24.3895 24.0499 23.4374 24.7846C22.4854 25.5219 21.1633 25.8893 19.4739 25.8893C17.6035 25.8893 16.1754 25.5737 15.1871 24.945C14.1988 24.3163 13.7047 23.4626 13.7047 22.3837C13.7047 21.5947 13.9116 20.9815 14.3256 20.5495C14.7395 20.1174 14.9465 19.8846 14.9465 19.8484C14.9465 19.6699 14.7214 19.4163 14.2713 19.0929C13.8211 18.7695 13.3088 18.6066 12.7345 18.6066C11.7281 18.6066 10.9106 18.9299 10.2819 19.5767C9.65324 20.2235 9.33761 21.0695 9.33761 22.1121C9.33761 23.9464 10.2353 25.3667 12.0334 26.3705C13.3373 27.1078 14.931 27.5683 16.804 27.7701Z" fill="#FA865F"/>
<path d="M21.6413 0H8.37192C3.7565 0 0 3.7565 0 8.37192V21.6413C0 26.2593 3.7565 30.0132 8.37192 30.0132H21.6413C26.2593 30.0132 30.0158 26.2567 30.0158 21.6413V8.37192C30.0158 3.7565 26.2593 0 21.6413 0ZM29.2991 21.6413C29.2991 25.8686 25.8712 29.2965 21.6438 29.2965H8.37192C4.14457 29.2965 0.716632 25.8686 0.716632 21.6413V8.37192C0.716632 4.14457 4.14457 0.716632 8.37192 0.716632H21.6413C23.4445 0.716632 25.1002 1.3453 26.4093 2.39309C27.8995 3.83152 28.8826 6.24272 27.7701 8.6565C27.6227 9.06268 27.4028 9.43523 27.1104 9.77155C26.518 10.4546 25.7341 10.7961 24.7639 10.7961C24.187 10.7961 23.6773 10.6331 23.2272 10.3097C22.777 9.98628 22.5519 9.73533 22.5519 9.55423C22.5519 9.51801 22.6968 9.37572 22.984 9.12218C23.2711 8.87123 23.5324 8.57371 23.7679 8.23221C24.0007 7.89071 24.1197 7.48712 24.1197 7.01886C24.0473 6.04869 23.5609 5.29325 22.6632 4.75513C21.7628 4.217 20.7021 3.94536 19.481 3.94536C18.115 3.94536 16.9198 4.26099 15.8953 4.88966C14.8708 5.51833 14.3585 6.39019 14.3585 7.50523C14.3585 8.51162 14.5732 9.31104 15.0053 9.90349C15.4373 10.4959 16.0841 10.9746 16.9456 11.3316C17.8071 11.6912 19.1731 12.1776 21.0436 12.7881C22.9478 13.3987 24.4405 13.9653 25.5193 14.4879C26.4352 14.9303 27.1777 15.5098 27.7701 16.2109C27.7779 16.2212 27.7857 16.229 27.7934 16.2393C28.7972 17.4475 29.2991 18.992 29.2991 20.5624V21.6413Z" fill="#FA865F"/>
</svg>
